# xmcd
#
# Track frame offsets:
#	150
#	11423
#	23497
#	39979
#	55697
#	66959
#	79995
#	95885
#	111128
#	121932
#	134676
#	148062
#	161678
#
# Disc length: 2341 seconds
#
# Revision: 0
# Processed by: cddbd v1.5.1PL2 Copyright (c) Steve Scherf et al.
# Submitted via: audiograbber 1.83.01
#
DISCID=af09230d
DTITLE=Jerry Williams - Sweet Sixty
DYEAR=2002
DGENRE=Rock and Roll
TTITLE0=Jockey Full Of Bourbon
TTITLE1=Ain't I'm A Dog
TTITLE2=Sweet Sixteen
TTITLE3=Personal Jesus
TTITLE4=That Mellow Saxophone
TTITLE5=I Won't Mind At All
TTITLE6=Love Me Now Or Let Me Go
TTITLE7=Kt's Army Of One
TTITLE8=I Fought The Law
TTITLE9=Let Me Be The One
TTITLE10=Sea Of Heartbreak
TTITLE11=Little Red Corvette
TTITLE12=My Love Was Wasted On You
EXTD=
EXTT0=
EXTT1=
EXTT2=
EXTT3=
EXTT4=
EXTT5=
EXTT6=
EXTT7=
EXTT8=
EXTT9=
EXTT10=
EXTT11=
EXTT12=
PLAYORDER=
